<svg xmlns="http://www.w3.org/2000/svg" viewBox="0 0 24 24" fill="#41BDF5">
  <path d="M21.8,13H20V21H13V17.67L15.79,14.88L16.5,15.59L17,15.09L15.21,13.3L13.71,14.8C13.08,15.43 12.78,16.27 12.82,17.11L12.82,21H4V13H2.19M21.63,9.35L18.35,6.06C17.55,5.26 16.35,5 15.38,5.33L9.35,7.23L4.37,2.25L2.96,3.66L7.94,8.64L5.5,15.12C5.17,16.09 5.43,17.29 6.23,18.09L9.52,21.38L10.92,20L7.63,16.72L9.89,10.74L12.95,13.8L14.36,12.39L11.3,9.32L16.21,7.67C16.68,7.5 17.18,7.62 17.56,8L20.85,11.28L21.63,9.35Z" />
</svg> 